<svg xmlns="http://www.w3.org/2000/svg" viewBox="0 0 1200 630" width="1200" height="630" role="img" aria-label="Zephlyn — automation, on autopilot.">
  <defs>
    <linearGradient id="og-bg" x1="0" y1="0" x2="1200" y2="630" gradientUnits="userSpaceOnUse">
      <stop offset="0" stop-color="#2C1271"></stop>
      <stop offset="0.6" stop-color="#4F1DD0"></stop>
      <stop offset="1" stop-color="#7C3AED"></stop>
    </linearGradient>
    <radialGradient id="og-glow" cx="0.85" cy="0.15" r="0.6">
      <stop offset="0" stop-color="#9B6BFF" stop-opacity="0.6"></stop>
      <stop offset="1" stop-color="#9B6BFF" stop-opacity="0"></stop>
    </radialGradient>
  </defs>
  <rect width="1200" height="630" fill="url(#og-bg)"></rect>
  <rect width="1200" height="630" fill="url(#og-glow)"></rect>
  
  <g transform="translate(80 80) scale(2.0)">
    <g fill="none" stroke="#D4C2FF" stroke-linecap="round">
      <path d="M 16 32 C 30 32 36 32 50 32 C 64 32 70 32 84 32" stroke-width="0.9" opacity="0.5"></path>
      <path d="M 16 68 C 30 68 36 68 50 68 C 64 68 70 68 84 68" stroke-width="0.9" opacity="0.5"></path>
      <path d="M 14 50 C 26 36 38 64 50 50 C 62 36 74 64 86 50" stroke-width="1.0" stroke="#FBFAFE"></path>
    </g>
    <g fill="#FBFAFE">
      <circle cx="16" cy="32" r="1.6"></circle>
      <circle cx="84" cy="32" r="1.6"></circle>
      <circle cx="16" cy="68" r="1.6"></circle>
      <circle cx="84" cy="68" r="1.6"></circle>
    </g>
    <circle cx="50" cy="50" r="6" fill="#EDE6FF" opacity="0.2"></circle>
    <circle cx="50" cy="50" r="3.6" fill="#EDE6FF"></circle>
  </g>
  <text x="290" y="180" font-family="Satoshi, &#39;Plus Jakarta Sans&#39;, Manrope, system-ui, sans-serif" font-weight="700" font-size="72" letter-spacing="-2.52" fill="#FBFAFE">Zephlyn</text>
  
  <text x="80" y="420" font-family="Satoshi, &#39;Plus Jakarta Sans&#39;, Manrope, system-ui, sans-serif" font-weight="700" font-size="84" letter-spacing="-2.94" fill="#FBFAFE">Automation that</text>
  <text x="80" y="510" font-family="Satoshi, &#39;Plus Jakarta Sans&#39;, Manrope, system-ui, sans-serif" font-weight="700" font-size="84" letter-spacing="-2.94" fill="#D4C2FF">actually listens.</text>
  
  <text x="80" y="585" font-family="ui-monospace, &#39;JetBrains Mono&#39;, monospace" font-size="18" letter-spacing="2.88" fill="#D4C2FF" opacity="0.75">ZEPHLYN.AI · 2026</text>
</svg>