<svg xmlns="http://www.w3.org/2000/svg" viewBox="0 0 100 100" width="100" height="100" role="img" aria-label="Zephlyn">
  <g fill="none" stroke="#9B6BFF" stroke-linecap="round">
    <path d="M 16 32 C 30 32 36 32 50 32 C 64 32 70 32 84 32" stroke-width="0.9" opacity="0.45"></path>
    <path d="M 16 68 C 30 68 36 68 50 68 C 64 68 70 68 84 68" stroke-width="0.9" opacity="0.45"></path>
    <path d="M 14 50 C 26 36 38 64 50 50 C 62 36 74 64 86 50" stroke-width="1.0"></path>
  </g>
  <g fill="#FBFAFE">
    <circle cx="16" cy="32" r="1.6"></circle>
    <circle cx="84" cy="32" r="1.6"></circle>
    <circle cx="16" cy="68" r="1.6"></circle>
    <circle cx="84" cy="68" r="1.6"></circle>
  </g>
  <circle cx="50" cy="50" r="6" fill="#B69AFF" opacity="0.14"></circle>
  <circle cx="50" cy="50" r="3.6" fill="#B69AFF"></circle>
</svg>