<svg xmlns="http://www.w3.org/2000/svg" viewBox="0 0 1000 240" width="1000" height="240" role="img" aria-label="Zephlyn">
  <defs>
    <linearGradient id="g" x1="10" y1="10" x2="90" y2="90" gradientUnits="userSpaceOnUse">
      <stop offset="0" stop-color="#3F1DA8"></stop>
      <stop offset="1" stop-color="#9B6BFF"></stop>
    </linearGradient>
  </defs>
  <g transform="translate(60 30) scale(1.8)">
    <g fill="none" stroke="#5B2BE0" stroke-linecap="round">
      <path d="M 16 32 C 30 32 36 32 50 32 C 64 32 70 32 84 32" stroke-width="0.9" opacity="0.45"></path>
      <path d="M 16 68 C 30 68 36 68 50 68 C 64 68 70 68 84 68" stroke-width="0.9" opacity="0.45"></path>
      <path d="M 14 50 C 26 36 38 64 50 50 C 62 36 74 64 86 50" stroke-width="1.0"></path>
    </g>
    <g fill="#3F1DA8">
      <circle cx="16" cy="32" r="1.6"></circle>
      <circle cx="84" cy="32" r="1.6"></circle>
      <circle cx="16" cy="68" r="1.6"></circle>
      <circle cx="84" cy="68" r="1.6"></circle>
    </g>
    <circle cx="50" cy="50" r="6" fill="url(#g)" opacity="0.14"></circle>
    <circle cx="50" cy="50" r="3.6" fill="url(#g)"></circle>
  </g>
  <text x="290" y="120" dominant-baseline="central" font-family="Satoshi, &#39;Plus Jakarta Sans&#39;, Manrope, system-ui, -apple-system, &#39;Segoe UI&#39;, sans-serif" font-weight="700" font-size="148" letter-spacing="-5.18" fill="#0A0517">Zephlyn</text>
</svg>