<svg xmlns="http://www.w3.org/2000/svg" viewBox="0 0 64 64" width="64" height="64" role="img" aria-label="Zephlyn">
  <defs>
    <linearGradient id="fav-g" x1="8" y1="8" x2="56" y2="56" gradientUnits="userSpaceOnUse">
      <stop offset="0" stop-color="#3F1DA8"></stop>
      <stop offset="1" stop-color="#7C3AED"></stop>
    </linearGradient>
  </defs>
  
  <g transform="translate(8 8) scale(0.48)">
    <g fill="none" stroke="#4F1DD0" stroke-linecap="round">
      <path d="M 16 32 C 30 32 36 32 50 32 C 64 32 70 32 84 32" stroke-width="1.6" opacity="0.55"></path>
      <path d="M 16 68 C 30 68 36 68 50 68 C 64 68 70 68 84 68" stroke-width="1.6" opacity="0.55"></path>
      <path d="M 14 50 C 26 36 38 64 50 50 C 62 36 74 64 86 50" stroke-width="1.8"></path>
    </g>
    <g fill="#4F1DD0">
      <circle cx="16" cy="32" r="3"></circle>
      <circle cx="84" cy="32" r="3"></circle>
      <circle cx="16" cy="68" r="3"></circle>
      <circle cx="84" cy="68" r="3"></circle>
    </g>
    <circle cx="50" cy="50" r="6.5" fill="#7C3AED"></circle>
  </g>
</svg>